<?xml version="1.0" encoding="iso-8859-1"?>
<!-- Generator: Adobe Illustrator 19.0.0, SVG Export Plug-In . SVG Version: 6.00 Build 0)  -->
<svg version="1.1" id="Layer_1" xmlns="http://www.w3.org/2000/svg" xmlns:xlink="http://www.w3.org/1999/xlink" x="0px" y="0px"
	 viewBox="0 0 512 512" style="enable-background:new 0 0 512 512;" xml:space="preserve">
<g>
	<g>
		<g>
			<path d="M149.333,320c-23.531,0-42.667,19.136-42.667,42.667s19.136,42.667,42.667,42.667c23.531,0,42.667-19.136,42.667-42.667
				S172.864,320,149.333,320z M149.333,384C137.579,384,128,374.421,128,362.667s9.579-21.333,21.333-21.333
				c11.755,0,21.333,9.579,21.333,21.333S161.088,384,149.333,384z"/>
			<path d="M288.235,390.741l-24.64-19.307c0.256-2.901,0.405-5.824,0.405-8.747c0-2.965-0.149-5.952-0.405-8.917l24.939-19.563
				c6.699-5.653,8.32-15.147,3.947-22.421l-27.819-48.085c-4.416-7.339-13.419-10.453-21.653-7.381l-28.949,11.648
				c-4.843-3.371-9.856-6.315-15.168-8.875l-4.416-31.317c-1.536-8.235-9.024-14.443-17.408-14.443H121.6
				c-8.597,0-15.936,6.208-17.515,15.125l-4.331,30.869c-5.355,2.603-10.411,5.568-15.147,8.832l-29.184-11.733
				c-8.043-3.072-17.024,0.107-21.504,7.595L6.272,311.808c-4.459,7.424-2.837,16.917,4.16,22.805l24.64,19.307
				c-0.256,2.901-0.405,5.824-0.405,8.747c0,2.987,0.149,5.952,0.405,8.917l-24.939,19.563c-6.699,5.653-8.32,15.147-3.947,22.421
				l27.819,48.064c4.416,7.339,13.44,10.475,21.653,7.381l28.949-11.648c4.843,3.371,9.856,6.315,15.168,8.875l4.395,31.296
				C105.707,505.771,113.195,512,121.6,512h55.467c8.597,0,15.936-6.208,17.493-15.125l4.352-30.848
				c5.355-2.603,10.411-5.568,15.147-8.832l29.205,11.755c7.957,2.965,17.003-0.149,21.483-7.616l27.648-47.787
				C296.853,406.123,295.232,396.629,288.235,390.741z M247.915,447.808l-31.403-12.629c-3.52-1.429-7.552-0.853-10.539,1.472
				c-6.187,4.843-13.269,8.96-21.013,12.288c-3.413,1.472-5.845,4.629-6.357,8.32l-4.693,33.408h-49.152l-4.693-33.216
				c-0.512-3.733-2.965-6.912-6.443-8.363c-7.573-3.179-14.421-7.189-20.928-12.245c-2.987-2.325-7.019-2.859-10.539-1.472
				L50.752,448L26.24,405.632l26.667-20.907c2.965-2.325,4.48-6.037,3.989-9.771C56.363,370.859,56,366.763,56,362.667
				c0-4.053,0.363-8.128,0.896-12.032c0.512-3.755-1.003-7.488-3.989-9.835L26.24,319.915l24.533-42.389l31.403,12.629
				c3.499,1.408,7.531,0.853,10.539-1.472c6.187-4.843,13.269-8.96,21.013-12.288c3.413-1.472,5.845-4.629,6.357-8.32l4.693-33.408
				h49.131l4.693,33.216c0.512,3.733,2.965,6.912,6.443,8.363c7.573,3.179,14.421,7.189,20.928,12.245
				c2.987,2.347,7.061,2.901,10.539,1.472l31.403-12.629l24.512,42.368l-26.667,20.907c-2.965,2.325-4.48,6.037-3.989,9.771
				c0.533,4.096,0.896,8.192,0.896,12.288c0,4.053-0.363,8.128-0.896,12.032c-0.512,3.755,1.003,7.488,3.989,9.835l26.667,20.885
				L247.915,447.808z"/>
		</g>
	</g>
</g>
<g>
	<g>
		<g>
			<path d="M362.667,106.667c-23.531,0-42.667,19.136-42.667,42.667C320,172.864,339.136,192,362.667,192
				s42.667-19.136,42.667-42.667C405.333,125.803,386.197,106.667,362.667,106.667z M362.667,170.667
				c-11.755,0-21.333-9.579-21.333-21.333c0-11.755,9.579-21.333,21.333-21.333S384,137.579,384,149.333
				C384,161.088,374.421,170.667,362.667,170.667z"/>
			<path d="M501.568,177.387l-24.64-19.307c0.256-2.901,0.405-5.824,0.405-8.747c0-2.987-0.149-5.952-0.405-8.917l24.939-19.563
				c6.699-5.653,8.32-15.147,3.947-22.421l-27.819-48.085c-4.395-7.317-13.397-10.453-21.653-7.36l-28.949,11.648
				c-4.843-3.371-9.856-6.315-15.168-8.875l-4.416-31.317C406.272,6.208,398.784,0,390.4,0h-55.467
				c-8.597,0-15.936,6.208-17.515,15.125l-4.331,30.869c-5.355,2.603-10.411,5.568-15.147,8.832l-29.184-11.733
				c-8.043-3.072-17.045,0.085-21.504,7.595l-27.648,47.787c-4.459,7.424-2.837,16.917,4.16,22.805l24.64,19.307
				c-0.256,2.901-0.405,5.824-0.405,8.747c0,2.987,0.149,5.952,0.405,8.917l-24.939,19.563c-6.699,5.653-8.32,15.147-3.947,22.421
				l27.819,48.064c4.416,7.339,13.44,10.496,21.653,7.381l28.949-11.648c4.843,3.371,9.856,6.315,15.168,8.875l4.395,31.296
				c1.536,8.235,9.024,14.464,17.429,14.464H390.4c8.597,0,15.936-6.208,17.515-15.125l4.331-30.869
				c5.355-2.603,10.411-5.568,15.147-8.832l29.205,11.755c7.957,2.965,17.003-0.149,21.483-7.616l27.648-47.787
				C510.187,192.768,508.565,183.275,501.568,177.387z M461.248,234.475l-31.403-12.629c-3.52-1.429-7.552-0.875-10.539,1.472
				c-6.187,4.843-13.269,8.96-21.013,12.288c-3.413,1.472-5.845,4.629-6.357,8.32l-4.693,33.408h-49.152l-4.693-33.216
				c-0.512-3.733-2.965-6.912-6.443-8.363c-7.573-3.179-14.421-7.189-20.928-12.245c-2.987-2.325-7.019-2.901-10.539-1.472
				l-31.403,12.629l-24.512-42.368l26.667-20.907c2.965-2.325,4.48-6.037,3.989-9.771c-0.533-4.096-0.896-8.192-0.896-12.288
				c0-4.053,0.363-8.128,0.896-12.032c0.512-3.755-1.003-7.488-3.989-9.835l-26.667-20.885l24.512-42.389l31.403,12.629
				c3.499,1.429,7.552,0.853,10.539-1.472c6.187-4.843,13.269-8.96,21.013-12.288c3.413-1.472,5.845-4.629,6.357-8.32l4.693-33.408
				h49.152l4.693,33.216c0.512,3.733,2.965,6.912,6.443,8.363c7.573,3.179,14.421,7.189,20.928,12.245
				c2.987,2.347,7.04,2.901,10.539,1.472L461.248,64l24.512,42.368l-26.667,20.907c-2.965,2.325-4.48,6.037-3.989,9.771
				c0.533,4.096,0.896,8.192,0.896,12.288c0,4.053-0.363,8.128-0.896,12.032c-0.512,3.755,1.003,7.488,3.989,9.835l26.667,20.885
				L461.248,234.475z"/>
		</g>
	</g>
</g>
<g>
</g>
<g>
</g>
<g>
</g>
<g>
</g>
<g>
</g>
<g>
</g>
<g>
</g>
<g>
</g>
<g>
</g>
<g>
</g>
<g>
</g>
<g>
</g>
<g>
</g>
<g>
</g>
<g>
</g>
</svg>
