<?xml version="1.0" encoding="iso-8859-1"?>
<!-- Generator: Adobe Illustrator 18.1.1, SVG Export Plug-In . SVG Version: 6.00 Build 0)  -->
<svg version="1.1" id="Capa_1" xmlns="http://www.w3.org/2000/svg" xmlns:xlink="http://www.w3.org/1999/xlink" x="0px" y="0px"
	 viewBox="0 0 193.899 193.899" style="enable-background:new 0 0 193.899 193.899;" xml:space="preserve">
<g>
	<g>
		<path style="fill:#010002;" d="M95.738,53.463C82.295,36.279,73.572,22.304,56.614,0c-4.857,0.943-15.961,10.496-10.311,15.466
			C57.455,30.729,80.266,44.053,95.738,53.463z"/>
		<path style="fill:#010002;" d="M114.48,63.028C107.272,47.46,99.319,32.722,90.118,15.46c-5.149,0.907-9.141,4.028-9.022,9.022
			C87.671,35.604,92.546,52.264,114.48,63.028z"/>
		<path style="fill:#010002;" d="M64.329,127.965c-0.603-1.068-0.979-2.769-1.104-5.102h-4.523c0,2.93,0.483,5.251,1.456,6.969
			c1.772,3.18,5.132,4.935,10.078,5.263v4.952h2.429v-4.952c3.079-0.346,5.436-1.038,7.071-2.094
			c2.948-1.903,4.415-5.12,4.415-9.654c0-3.133-1.152-5.495-3.443-7.089c-1.42-0.973-4.093-2.017-8.043-3.115v-12.435
			c2.351,0.09,4.057,0.991,5.132,2.709c0.573,0.931,0.925,2.047,1.038,3.347h4.469c-0.084-2.882-1.032-5.209-2.846-6.963
			c-1.814-1.766-4.415-2.757-7.799-2.995v-3.347H70.23v3.395c-3.419,0.03-6.086,1.092-7.978,3.162
			c-1.891,2.076-2.84,4.41-2.84,6.993c0,2.894,0.877,5.161,2.637,6.796c1.754,1.629,4.487,2.804,8.181,3.503v13.915
			C67.36,130.973,65.391,129.893,64.329,127.965z M72.665,117.917c2.118,0.573,3.64,1.181,4.541,1.844
			c1.563,1.11,2.357,2.715,2.357,4.845c0,1.343-0.292,2.53-0.871,3.544c-1.104,1.993-3.115,3.067-6.021,3.192L72.665,117.917
			L72.665,117.917z M65.695,110.662c-1.122-0.949-1.683-2.273-1.683-3.956c0-1.384,0.477-2.733,1.42-4.01
			c0.961-1.271,2.56-1.951,4.803-2.041v11.999C68.339,112.273,66.823,111.61,65.695,110.662z"/>
		<path style="fill:#010002;" d="M81.096,47.675c-16.069-9.368-33.212-19.738-56.697-33.498c-4.32,5.424-7.912,13.831-1.635,18.951
			C37.92,45.491,54.686,56.435,65.582,61.31c10.347,4.63,24.78,6.534,50.307,13.431c-24.434-2.81-38.325-6.08-50.253-3.867
			C42.078,75.272,26.964,96.15,30.843,113.4c2.822,2.804,7.465,3.968,11.254,3.479c0-0.048-0.012-0.09-0.012-0.125
			c0-16.212,13.133-29.345,29.339-29.345c16.212,0,29.345,13.139,29.345,29.345c0,16.218-13.145,29.345-29.345,29.345
			c-14.858,0-27-11.069-28.945-25.407c-5.161-2.56-20.365-0.316-18.08,6.88c16.176,51.088,71.59,35.342,107.308,66.328
			l42.812-42.818c-16.391-19.488-20.019-46.201-38.015-66.035C122.542,69.651,99.85,58.613,81.096,47.675z"/>
	</g>
</g>
<g>
</g>
<g>
</g>
<g>
</g>
<g>
</g>
<g>
</g>
<g>
</g>
<g>
</g>
<g>
</g>
<g>
</g>
<g>
</g>
<g>
</g>
<g>
</g>
<g>
</g>
<g>
</g>
<g>
</g>
</svg>
