<svg xmlns="http://www.w3.org/2000/svg" width="679.7" height="850.3" viewBox="0 -8.4 679.7 850.3"><path d="M194.5 678.5s6.6 15.4 26.8 26c-36.2-3.8-36.2-3.8-108.8-57.8 0 0-4 43.9-65.9 114.6 32.5-106.6 29-121.5 4.2-173.3-8.8-17.4-20.1 19.9-18.5 36.9-61.8-204 154-280.7 154-280.7l-44.4-31.5C194.6 330 582.1 283 324.5 196.3c0 0 21.1 21.5 18.4 35.2-4.6-11.6-19.5-15.6-19.5-15.6s10.4 34.9 2.8 51.8c-2.6-20-35.2-51.9-35.2-51.9s10.8 53.8-84.8 51c-49.7-2.2-72 6.6-88.8 23.4-13.4 13.2-16.6 15.4-22.7 15.4-7 0-14.6-4.4-23.8-13.8-3.6-3.7-4.5-7-4.5-16.4.1-10.1 1.2-13.3 7.7-23 7.2-10.5 8.7-11.6 25-17.6 9.6-3.5 22.6-8.7 28.8-11.5 10-4.6 11.6-6 13.3-13.1 2.1-8.5 3.4-9.4 28.3-20.2 9-3.9 16.4-9.7 30.5-24 16.7-17 16.3-21.7 16.7-24 2.1-28.6-56 0-56 0s12.3-18 23.3-25.8c30.1-21 69.8-1.5 69.8-1.5S322.1 37 419.6 4.5c-4.7 3.2-69.6 68-68.5 75.3 13.4.3 20.5 7.6 20.5 7.6-28-1-44.8 25.6-44.8 25.6 13-7.5 87.8-19 87.8-19s-10.3 6.7-10 9.7C479.8 82.1 637 86.4 637 86.4 581 94.1 473 134.6 473 134.6s79.7-5.8 125.6 10.2c-44.9-2.4-75.4 7.6-90.7 15.9 58.5 31 98.8 129.6 98.8 129.6s-88.5-96.2-122-86.2c0 0 122.7 184.3 14.6 258 5-24.7 17.7-116-19.1-136 0 0-140.2 121-226.5 119 22-7.7 29.6-21.5 29.6-21.5-87-18.2-114 82.8-96.6 121.9-25-9-61.1-53.5-61.1-53.5s5.7 99 126 85c-18.2 11-44.6 22.1-73.7 20.3 6.4 18.9 131.7-2.4 139.4-17.4 3.8-7.2 21.6-43-22.8-57.4 26.7-14.2 68.6 39.2 68.6 39.2s7.8-5.3 45-11.8-26.3-18.9-26.3-18.9c55.4-.6 81.5 9.2 81.5 9.2C472.5 516.7 360 458 360 458s496.7 151 222 350.6c26.8-67.7 26.9-84.3 15-119.5-4.2-12.7-9.4-22.5-13-25.2-1.1-.7 3.6 8.8-14.8 22.4-24.2-82.8-127.8-82-138.3-77-57.1 22.5.7 58.6 26.6 44-15 21.4-58 21.1-58 21.1s54.6 46.1 102.7 25.4c-31.6 77.2-170.7-49.2-171-49.7S283 666 283 666s62.5 52 92.3 155.8c-68.2-100.4-180.8-143.3-180.8-143.3zm36.6-486.9c20.2-21.4 18.6-24.1-6.4-11.1-14.5 7.6-39.9 21.4-37.5 28.6 16.8.6 26.8.6 26.8.6l17.1-18z"/></svg>