<?xml version="1.0" encoding="iso-8859-1"?>
<!-- Generator: Adobe Illustrator 16.0.0, SVG Export Plug-In . SVG Version: 6.00 Build 0)  -->
<!DOCTYPE svg PUBLIC "-//W3C//DTD SVG 1.1//EN" "http://www.w3.org/Graphics/SVG/1.1/DTD/svg11.dtd">
<svg version="1.1" id="Capa_1" xmlns="http://www.w3.org/2000/svg" xmlns:xlink="http://www.w3.org/1999/xlink" x="0px" y="0px"
	 width="78.732px" height="78.732px" viewBox="0 0 78.732 78.732" style="enable-background:new 0 0 78.732 78.732;"
	 xml:space="preserve">
<g>
	<g>
		<path d="M25.055,35.583c-0.091-0.872-0.57-1.819-0.546-2.59c2.274,1.638,3.642,4.005,3.681,7.5
			c0.004,0.451-0.047,0.917-0.116,1.382c0,0,1.121,5.155,8.539,4.672c3.625-0.242,7.08-1.966,7.08-1.966
			c-1.214-6.772-6.105-15.944-5.549-23.588c0.056-0.756,0.167-1.754,0.408-2.585c0.215-0.74,0.864-1.409,0.818-2.184
			c-4.564,2.175-7.956,6.209-7.772,12.682c-3.896-4.317-8.011-10.17-8.452-18.136C22.897,6.299,24.172,3.432,25.188,0
			c-0.136,0-0.273,0-0.409,0c-6.556,4.001-10.359,11.63-8.726,21.95c0.383,2.42,1.42,5.057,1.364,7.771
			c-0.062,2.969-0.896,5.162-2.182,7.357c1.206-6.662-0.656-13.751-5.59-15.949c0.559,5.032,0.909,9.12-0.818,12.542
			c-0.422,0.836-1.046,1.56-1.499,2.317c-1.375,2.298-2.507,5.057-3,8.452c0,1.093,0,2.183,0,3.275
			c1.114,7.131,6.176,11.004,12.816,12.952c0.878,0.251,1.937,0.894,2.864,0.405c-2.354-1.416-4.471-3.033-4.772-6.136
			c-0.477-4.877,3.66-9.017,2.318-14.042c1.679,1.059,3.156,3.011,2.59,5.862c0.807,0.146,1.295-0.876,1.772-1.501
			C23.625,43.043,25.496,39.891,25.055,35.583z"/>
		<path d="M24.665,44.148c0,10.073,0,20.15,0,30.222c16.583,15.112,33.16-15.114,49.739,0c0-10.071,0-20.151,0-30.222
			C57.82,29.039,41.242,59.262,24.665,44.148z M49.535,70.43c-6.173,3.057-11.171-0.821-11.171-7.107
			c0-6.05,5.001-12.182,11.171-15.233c6.175-3.057,11.168,0.826,11.168,7.107C60.703,61.251,55.703,67.378,49.535,70.43z"/>
		<path d="M53.066,57.492c-0.538-0.142-1.556-0.087-3.062,0.178c0-1.578,0-3.159,0-4.73c0.89-0.374,1.54-0.328,1.953,0.146
			c0.219,0.258,0.349,0.63,0.396,1.1c0.563-0.246,1.134-0.492,1.702-0.726c-0.037-1.083-0.393-1.82-1.082-2.189
			c-0.693-0.374-1.683-0.314-2.97,0.178c0-0.424,0-0.844,0-1.268c-0.31,0.141-0.615,0.278-0.924,0.419c0,0.434,0,0.862,0,1.291
			c-1.303,0.611-2.312,1.46-3.036,2.564c-0.726,1.102-1.086,2.131-1.086,3.116c0,1.102,0.34,1.829,1.011,2.162
			c0.669,0.342,1.709,0.321,3.111-0.05c0,1.765,0,3.53,0,5.296c-1.097,0.411-1.843,0.338-2.251-0.224
			c-0.229-0.308-0.367-0.892-0.42-1.756c-0.575,0.244-1.146,0.488-1.72,0.721c0,1.118,0.187,1.925,0.552,2.427
			c0.675,0.936,1.957,1.05,3.844,0.311c0,0.634,0,1.259,0,1.889c0.306-0.142,0.616-0.278,0.924-0.42c0-0.634,0-1.259,0-1.889
			c1.172-0.666,2.071-1.327,2.689-1.996c1.12-1.216,1.686-2.662,1.686-4.384C54.376,58.459,53.942,57.727,53.066,57.492z
			 M49.084,57.907c-0.73,0.188-1.306,0.196-1.729,0.027c-0.429-0.173-0.639-0.584-0.639-1.223c0-0.533,0.183-1.117,0.538-1.766
			c0.365-0.646,0.977-1.181,1.83-1.605C49.084,54.86,49.084,56.383,49.084,57.907z M52.3,62.355c-0.424,0.94-1.187,1.688-2.29,2.245
			c0-1.702,0-3.408,0-5.11c0.808-0.15,1.382-0.173,1.725-0.082c0.598,0.158,0.894,0.642,0.894,1.456
			C52.628,61.37,52.519,61.867,52.3,62.355z"/>
	</g>
</g>
<g>
</g>
<g>
</g>
<g>
</g>
<g>
</g>
<g>
</g>
<g>
</g>
<g>
</g>
<g>
</g>
<g>
</g>
<g>
</g>
<g>
</g>
<g>
</g>
<g>
</g>
<g>
</g>
<g>
</g>
</svg>
